<mxfile host="app.diagrams.net" modified="2024-05-14T09:44:11.351Z" agent="Mozilla/5.0 (X11; Linux x86_64; rv:125.0) Gecko/20100101 Firefox/125.0" etag="BxBVxS3NW_bKUfo9db2Z" version="24.2.5" type="device">
  <diagram name="Page-1" id="sLKL-edGHlL2R8nrLRAm">
    <mxGraphModel dx="1434" dy="790" grid="1" gridSize="10" guides="1" tooltips="1" connect="1" arrows="1" fold="1" page="1" pageScale="1" pageWidth="850" pageHeight="1100" math="0" shadow="0">
      <root>
        <mxCell id="0" />
        <mxCell id="1" parent="0" />
        <mxCell id="LpHIb9bsGUuiumd6F3rx-7" value="" style="rounded=1;whiteSpace=wrap;html=1;" vertex="1" parent="1">
          <mxGeometry x="800" y="40" width="280" height="480" as="geometry" />
        </mxCell>
        <mxCell id="LpHIb9bsGUuiumd6F3rx-8" value="START / FREE" style="rounded=1;whiteSpace=wrap;html=1;" vertex="1" parent="1">
          <mxGeometry x="870" y="110" width="140" height="60" as="geometry" />
        </mxCell>
        <mxCell id="LpHIb9bsGUuiumd6F3rx-9" value="ALLOCATED" style="rounded=1;whiteSpace=wrap;html=1;" vertex="1" parent="1">
          <mxGeometry x="870" y="190" width="140" height="60" as="geometry" />
        </mxCell>
        <mxCell id="LpHIb9bsGUuiumd6F3rx-10" value="FREE" style="rounded=1;whiteSpace=wrap;html=1;" vertex="1" parent="1">
          <mxGeometry x="870" y="270" width="140" height="60" as="geometry" />
        </mxCell>
        <mxCell id="LpHIb9bsGUuiumd6F3rx-11" value="ALLOCATED" style="rounded=1;whiteSpace=wrap;html=1;" vertex="1" parent="1">
          <mxGeometry x="870" y="350" width="140" height="60" as="geometry" />
        </mxCell>
        <mxCell id="LpHIb9bsGUuiumd6F3rx-14" value="ALLOCATED / END" style="rounded=1;whiteSpace=wrap;html=1;" vertex="1" parent="1">
          <mxGeometry x="870" y="430" width="140" height="60" as="geometry" />
        </mxCell>
        <mxCell id="LpHIb9bsGUuiumd6F3rx-16" value="Page Structure" style="text;html=1;align=center;verticalAlign=middle;whiteSpace=wrap;rounded=0;" vertex="1" parent="1">
          <mxGeometry x="890" y="50" width="100" height="30" as="geometry" />
        </mxCell>
        <object label="struct g_heap" item="" id="LpHIb9bsGUuiumd6F3rx-17">
          <mxCell style="swimlane;fontStyle=0;childLayout=stackLayout;horizontal=1;startSize=30;horizontalStack=0;resizeParent=1;resizeParentMax=0;resizeLast=0;collapsible=1;marginBottom=0;whiteSpace=wrap;html=1;" vertex="1" parent="1">
            <mxGeometry x="1240" y="40" width="140" height="150" as="geometry" />
          </mxCell>
        </object>
        <mxCell id="LpHIb9bsGUuiumd6F3rx-18" value="chunk_list* tiny" style="text;strokeColor=none;fillColor=none;align=left;verticalAlign=middle;spacingLeft=4;spacingRight=4;overflow=hidden;points=[[0,0.5],[1,0.5]];portConstraint=eastwest;rotatable=0;whiteSpace=wrap;html=1;" vertex="1" parent="LpHIb9bsGUuiumd6F3rx-17">
          <mxGeometry y="30" width="140" height="30" as="geometry" />
        </mxCell>
        <mxCell id="LpHIb9bsGUuiumd6F3rx-19" value="chunk_list* small" style="text;strokeColor=none;fillColor=none;align=left;verticalAlign=middle;spacingLeft=4;spacingRight=4;overflow=hidden;points=[[0,0.5],[1,0.5]];portConstraint=eastwest;rotatable=0;whiteSpace=wrap;html=1;" vertex="1" parent="LpHIb9bsGUuiumd6F3rx-17">
          <mxGeometry y="60" width="140" height="30" as="geometry" />
        </mxCell>
        <mxCell id="LpHIb9bsGUuiumd6F3rx-20" value="chunk_list* large" style="text;strokeColor=none;fillColor=none;align=left;verticalAlign=middle;spacingLeft=4;spacingRight=4;overflow=hidden;points=[[0,0.5],[1,0.5]];portConstraint=eastwest;rotatable=0;whiteSpace=wrap;html=1;" vertex="1" parent="LpHIb9bsGUuiumd6F3rx-17">
          <mxGeometry y="90" width="140" height="30" as="geometry" />
        </mxCell>
        <mxCell id="LpHIb9bsGUuiumd6F3rx-40" value="size_t size" style="text;strokeColor=none;fillColor=none;align=left;verticalAlign=middle;spacingLeft=4;spacingRight=4;overflow=hidden;points=[[0,0.5],[1,0.5]];portConstraint=eastwest;rotatable=0;whiteSpace=wrap;html=1;" vertex="1" parent="LpHIb9bsGUuiumd6F3rx-17">
          <mxGeometry y="120" width="140" height="30" as="geometry" />
        </mxCell>
        <mxCell id="LpHIb9bsGUuiumd6F3rx-21" value="" style="rounded=1;whiteSpace=wrap;html=1;" vertex="1" parent="1">
          <mxGeometry x="1240" y="240" width="200" height="200" as="geometry" />
        </mxCell>
        <mxCell id="LpHIb9bsGUuiumd6F3rx-22" value="" style="endArrow=none;dashed=1;html=1;dashPattern=1 3;strokeWidth=2;rounded=0;entryX=1.01;entryY=0.395;entryDx=0;entryDy=0;entryPerimeter=0;exitX=0;exitY=0.395;exitDx=0;exitDy=0;exitPerimeter=0;" edge="1" parent="1" source="LpHIb9bsGUuiumd6F3rx-21" target="LpHIb9bsGUuiumd6F3rx-21">
          <mxGeometry width="50" height="50" relative="1" as="geometry">
            <mxPoint x="910" y="410" as="sourcePoint" />
            <mxPoint x="960" y="360" as="targetPoint" />
          </mxGeometry>
        </mxCell>
        <mxCell id="LpHIb9bsGUuiumd6F3rx-23" value="&lt;div&gt;Page Tiny&lt;/div&gt;" style="text;html=1;align=center;verticalAlign=middle;whiteSpace=wrap;rounded=0;" vertex="1" parent="1">
          <mxGeometry x="1295" y="210" width="100" height="30" as="geometry" />
        </mxCell>
        <mxCell id="LpHIb9bsGUuiumd6F3rx-24" value="meta data" style="text;html=1;align=center;verticalAlign=middle;whiteSpace=wrap;rounded=0;" vertex="1" parent="1">
          <mxGeometry x="1310" y="240" width="60" height="30" as="geometry" />
        </mxCell>
        <mxCell id="LpHIb9bsGUuiumd6F3rx-25" value="&lt;div&gt;allocation space&lt;br&gt;&lt;/div&gt;" style="text;html=1;align=center;verticalAlign=middle;whiteSpace=wrap;rounded=0;" vertex="1" parent="1">
          <mxGeometry x="1310" y="365" width="60" height="30" as="geometry" />
        </mxCell>
        <mxCell id="LpHIb9bsGUuiumd6F3rx-28" value="" style="rounded=1;whiteSpace=wrap;html=1;" vertex="1" parent="1">
          <mxGeometry x="1285" y="270" width="110" height="40" as="geometry" />
        </mxCell>
        <mxCell id="LpHIb9bsGUuiumd6F3rx-29" value="free space bit array" style="text;html=1;align=center;verticalAlign=middle;whiteSpace=wrap;rounded=0;" vertex="1" parent="1">
          <mxGeometry x="1310" y="275" width="60" height="30" as="geometry" />
        </mxCell>
        <mxCell id="LpHIb9bsGUuiumd6F3rx-30" value="" style="endArrow=classic;html=1;rounded=0;exitX=1;exitY=0.25;exitDx=0;exitDy=0;" edge="1" parent="1" source="LpHIb9bsGUuiumd6F3rx-21">
          <mxGeometry width="50" height="50" relative="1" as="geometry">
            <mxPoint x="1440" y="260" as="sourcePoint" />
            <mxPoint x="1580" y="290" as="targetPoint" />
          </mxGeometry>
        </mxCell>
        <mxCell id="LpHIb9bsGUuiumd6F3rx-33" value="&lt;div&gt;pointer to next page&lt;/div&gt;" style="edgeLabel;html=1;align=center;verticalAlign=middle;resizable=0;points=[];" vertex="1" connectable="0" parent="LpHIb9bsGUuiumd6F3rx-30">
          <mxGeometry x="-0.4714" y="-2" relative="1" as="geometry">
            <mxPoint x="23" y="8" as="offset" />
          </mxGeometry>
        </mxCell>
        <mxCell id="LpHIb9bsGUuiumd6F3rx-32" value="" style="rounded=1;whiteSpace=wrap;html=1;" vertex="1" parent="1">
          <mxGeometry x="1580" y="240" width="200" height="200" as="geometry" />
        </mxCell>
        <mxCell id="LpHIb9bsGUuiumd6F3rx-35" value="struct malloc_chunk" style="swimlane;fontStyle=0;childLayout=stackLayout;horizontal=1;startSize=30;horizontalStack=0;resizeParent=1;resizeParentMax=0;resizeLast=0;collapsible=1;marginBottom=0;whiteSpace=wrap;html=1;" vertex="1" parent="1">
          <mxGeometry x="1640" y="40" width="140" height="120" as="geometry" />
        </mxCell>
        <mxCell id="LpHIb9bsGUuiumd6F3rx-36" value="block_header header" style="text;strokeColor=none;fillColor=none;align=left;verticalAlign=middle;spacingLeft=4;spacingRight=4;overflow=hidden;points=[[0,0.5],[1,0.5]];portConstraint=eastwest;rotatable=0;whiteSpace=wrap;html=1;" vertex="1" parent="LpHIb9bsGUuiumd6F3rx-35">
          <mxGeometry y="30" width="140" height="30" as="geometry" />
        </mxCell>
        <mxCell id="LpHIb9bsGUuiumd6F3rx-37" value="payload" style="text;strokeColor=none;fillColor=none;align=left;verticalAlign=middle;spacingLeft=4;spacingRight=4;overflow=hidden;points=[[0,0.5],[1,0.5]];portConstraint=eastwest;rotatable=0;whiteSpace=wrap;html=1;" vertex="1" parent="LpHIb9bsGUuiumd6F3rx-35">
          <mxGeometry y="60" width="140" height="60" as="geometry" />
        </mxCell>
        <object label="struct chunk_list" item="" id="LpHIb9bsGUuiumd6F3rx-41">
          <mxCell style="swimlane;fontStyle=0;childLayout=stackLayout;horizontal=1;startSize=30;horizontalStack=0;resizeParent=1;resizeParentMax=0;resizeLast=0;collapsible=1;marginBottom=0;whiteSpace=wrap;html=1;" vertex="1" parent="1">
            <mxGeometry x="1440" y="40" width="140" height="120" as="geometry" />
          </mxCell>
        </object>
        <mxCell id="LpHIb9bsGUuiumd6F3rx-42" value="chunk_list* start" style="text;strokeColor=none;fillColor=none;align=left;verticalAlign=middle;spacingLeft=4;spacingRight=4;overflow=hidden;points=[[0,0.5],[1,0.5]];portConstraint=eastwest;rotatable=0;whiteSpace=wrap;html=1;" vertex="1" parent="LpHIb9bsGUuiumd6F3rx-41">
          <mxGeometry y="30" width="140" height="30" as="geometry" />
        </mxCell>
        <mxCell id="LpHIb9bsGUuiumd6F3rx-43" value="chunk_list* next" style="text;strokeColor=none;fillColor=none;align=left;verticalAlign=middle;spacingLeft=4;spacingRight=4;overflow=hidden;points=[[0,0.5],[1,0.5]];portConstraint=eastwest;rotatable=0;whiteSpace=wrap;html=1;" vertex="1" parent="LpHIb9bsGUuiumd6F3rx-41">
          <mxGeometry y="60" width="140" height="30" as="geometry" />
        </mxCell>
        <mxCell id="LpHIb9bsGUuiumd6F3rx-46" value="size_t size" style="text;strokeColor=none;fillColor=none;align=left;verticalAlign=middle;spacingLeft=4;spacingRight=4;overflow=hidden;points=[[0,0.5],[1,0.5]];portConstraint=eastwest;rotatable=0;whiteSpace=wrap;html=1;" vertex="1" parent="LpHIb9bsGUuiumd6F3rx-41">
          <mxGeometry y="90" width="140" height="30" as="geometry" />
        </mxCell>
        <mxCell id="LpHIb9bsGUuiumd6F3rx-48" value="struct block_header" style="swimlane;fontStyle=0;childLayout=stackLayout;horizontal=1;startSize=30;horizontalStack=0;resizeParent=1;resizeParentMax=0;resizeLast=0;collapsible=1;marginBottom=0;whiteSpace=wrap;html=1;" vertex="1" parent="1">
          <mxGeometry x="1840" y="40" width="140" height="120" as="geometry" />
        </mxCell>
        <mxCell id="LpHIb9bsGUuiumd6F3rx-49" value="block_header header" style="text;strokeColor=none;fillColor=none;align=left;verticalAlign=middle;spacingLeft=4;spacingRight=4;overflow=hidden;points=[[0,0.5],[1,0.5]];portConstraint=eastwest;rotatable=0;whiteSpace=wrap;html=1;" vertex="1" parent="LpHIb9bsGUuiumd6F3rx-48">
          <mxGeometry y="30" width="140" height="30" as="geometry" />
        </mxCell>
        <mxCell id="LpHIb9bsGUuiumd6F3rx-50" value="payload" style="text;strokeColor=none;fillColor=none;align=left;verticalAlign=middle;spacingLeft=4;spacingRight=4;overflow=hidden;points=[[0,0.5],[1,0.5]];portConstraint=eastwest;rotatable=0;whiteSpace=wrap;html=1;" vertex="1" parent="LpHIb9bsGUuiumd6F3rx-48">
          <mxGeometry y="60" width="140" height="60" as="geometry" />
        </mxCell>
      </root>
    </mxGraphModel>
  </diagram>
</mxfile>
